<?xml version="1.0" encoding="UTF-8"?>
<svg version="1.1" xmlns="http://www.w3.org/2000/svg" width="512" height="512">
<path d="M0 0 C0.83128418 0.19867676 1.66256836 0.39735352 2.51904297 0.60205078 C50.83484534 12.56229483 92.89395989 41.50638692 119.28662109 84.07519531 C129.60635128 101.31779341 136.97397568 119.56828404 142 139 C142.19379745 139.74554579 142.38759491 140.49109158 142.58726501 141.25922966 C147.58842542 161.67013662 146.5892101 182.85665024 146.53730202 203.71257329 C146.52705693 209.12556435 146.53659689 214.53853048 146.54284668 219.95152283 C146.55007942 229.01631632 146.54064015 238.08097848 146.52148438 247.14575195 C146.49961203 257.61684863 146.50685934 268.08763496 146.52879 278.55872446 C146.54693613 287.58598582 146.54950952 296.61315383 146.53903532 305.64042753 C146.53281042 311.01707683 146.53193948 316.39357997 146.54518127 321.7702198 C146.55673156 326.80943476 146.54872916 331.84824728 146.52560425 336.88741875 C146.52031759 338.73451443 146.5218302 340.58164403 146.53065491 342.4287262 C146.54159298 344.95038271 146.52787 347.47075037 146.50793457 349.99232483 C146.5213189 351.08651492 146.5213189 351.08651492 146.53497362 352.20280987 C146.45742108 357.26226345 145.26209917 360.15682956 142 364 C138.20360158 366.76000656 135.56580484 367.37580851 130.90420628 367.38031673 C129.05559084 367.39297665 129.05559084 367.39297665 127.16962963 367.40589231 C125.80502553 367.40009727 124.44042262 367.39401625 123.07582092 367.38768005 C121.62384788 367.39185283 120.1718781 367.39733003 118.71991438 367.40399987 C114.72937596 367.41848073 110.73904361 367.41420156 106.74849379 367.40683305 C102.44506671 367.4021102 98.14168479 367.41460339 93.83827209 367.42485046 C85.40735702 367.44206107 76.9765164 367.4428738 68.54558832 367.43763756 C61.69411069 367.43359889 54.84265509 367.43503581 47.99117851 367.44038582 C47.01666114 367.44113424 46.04214377 367.44188266 45.03809557 367.44265376 C43.05847363 367.44418521 41.07885168 367.44572356 39.09922975 367.44726873 C20.52784413 367.46100192 1.95650063 367.4555503 -16.61488403 367.44408352 C-33.61105269 367.43414992 -50.60711251 367.44709256 -67.60326438 367.47101771 C-85.04859443 367.49539044 -102.49387375 367.5050211 -119.93922049 367.49836498 C-129.73600623 367.49486874 -139.53270823 367.49713151 -149.32948112 367.51461601 C-157.66914401 367.52931515 -166.00866421 367.53000344 -174.34832423 367.5125451 C-178.6042767 367.50401387 -182.85997402 367.5019371 -187.11591339 367.51719666 C-191.01133569 367.53099083 -194.90628297 367.52634913 -198.80167741 367.50695742 C-200.211449 367.50318082 -201.62125816 367.50616704 -203.03099643 367.51656907 C-214.87037007 367.59772169 -214.87037007 367.59772169 -218.69069767 365.28117466 C-222.86188608 361.16079199 -224.33179275 358.2890175 -224.40589231 352.33189118 C-224.39988227 351.59951827 -224.39387222 350.86714537 -224.38768005 350.11257935 C-224.39306559 349.32415897 -224.39845113 348.5357386 -224.40399987 347.7234267 C-224.41829596 345.0838505 -224.41117124 342.44477467 -224.40405273 339.80517578 C-224.40975622 337.91074216 -224.4167204 336.01631197 -224.42485046 334.12188721 C-224.44282002 328.9719935 -224.44160382 323.82226989 -224.43590808 318.67235422 C-224.4328152 314.35972907 -224.43891128 310.04713654 -224.44494683 305.73451602 C-224.459009 295.53831515 -224.45742265 285.34219797 -224.44604492 275.14599609 C-224.43462067 264.67789395 -224.44853907 254.21004971 -224.4754414 243.74198163 C-224.49773476 234.72501721 -224.5042036 225.70813289 -224.49836498 216.69114292 C-224.49501946 211.31982127 -224.49724557 205.94866401 -224.51461601 200.57736588 C-224.64246247 156.83803535 -224.64246247 156.83803535 -220 139 C-219.77154829 138.11700352 -219.54309658 137.23400703 -219.30772209 136.32425308 C-206.82364542 88.99522855 -176.97176757 47.681568 -134.7734375 22.42578125 C-95.11218474 -0.59328157 -45.20081617 -10.88222115 0 0 Z " fill="#B27861" transform="translate(224,145)"/>
<path d="M0 0 C22.20185867 0 22.20185867 0 28.875 1.125 C29.68904297 1.25624268 30.50308594 1.38748535 31.34179688 1.52270508 C80.98555822 10.10796594 124.09954213 38.50609922 153.19458008 79.32617188 C166.37956994 98.35784163 175.2219809 119.66090673 181 142 C181.19379745 142.74554579 181.38759491 143.49109158 181.58726501 144.25922966 C186.58842542 164.67013662 185.5892101 185.85665024 185.53730202 206.71257329 C185.52705693 212.12556435 185.53659689 217.53853048 185.54284668 222.95152283 C185.55007942 232.01631632 185.54064015 241.08097848 185.52148438 250.14575195 C185.49961203 260.61684863 185.50685934 271.08763496 185.52879 281.55872446 C185.54693613 290.58598582 185.54950952 299.61315383 185.53903532 308.64042753 C185.53281042 314.01707683 185.53193948 319.39357997 185.54518127 324.7702198 C185.55673156 329.80943476 185.54872916 334.84824728 185.52560425 339.88741875 C185.52031759 341.73451443 185.5218302 343.58164403 185.53065491 345.4287262 C185.54159298 347.95038271 185.52787 350.47075037 185.50793457 352.99232483 C185.51685746 353.72178489 185.52578034 354.45124496 185.53497362 355.20280987 C185.45742108 360.26226345 184.26209917 363.15682956 181 367 C176.99594973 370.23220068 173.78119584 370.37159201 168.71708679 370.36076355 C167.99410945 370.36332682 167.27113211 370.3658901 166.52624637 370.36853105 C164.10931004 370.37346335 161.69300161 370.35698569 159.27612305 370.34057617 C157.54141759 370.33972978 155.80671106 370.34020528 154.07200623 370.34190369 C149.36574664 370.34276458 144.65971634 370.32512349 139.95351005 370.30418181 C135.03410742 370.2854308 130.11469957 370.28366581 125.19526672 370.28010559 C115.88098313 370.2707805 106.56680515 370.24616041 97.25256807 370.21605712 C86.64807384 370.18252758 76.04357458 370.16603073 65.43904054 370.15097082 C43.62595499 370.11961127 21.81301421 370.06459337 0 370 C0 345.91 0 321.82 0 297 C8 303 8 303 10.58203125 304.94140625 C27.45130342 317.20191054 46.7099931 321.29521655 67.24121094 318.71875 C86.10745481 315.62275101 103.1806155 305.17037288 114.8671875 290.1328125 C127.00188938 272.30858007 131.91860286 252.13693091 128.375 230.734375 C124.47072435 211.38631194 113.34336279 194.11267258 97 183 C78.14720677 171.55711228 60.67090412 170.38602647 39 171 C39.34933594 171.83144531 39.69867188 172.66289062 40.05859375 173.51953125 C40.51363281 174.60621094 40.96867187 175.69289063 41.4375 176.8125 C41.88996094 177.89144531 42.34242188 178.97039062 42.80859375 180.08203125 C46.86561193 190.01840037 46.20887686 202.3540158 42.3203125 212.29296875 C36.49722087 224.23202939 27.39509083 233.11019352 15 238 C4.40342372 241.51984177 -7.64632383 241.3602535 -18 237 C-28.59701281 231.4279294 -35.79406628 224.75637776 -41 214 C-41.309375 213.37867188 -41.61875 212.75734375 -41.9375 212.1171875 C-46.9033513 201.46925635 -46.03290031 188.97062957 -42.3203125 178.10546875 C-37.06264294 165.73905661 -27.29201509 157.06021288 -15 152 C-9.38079307 149.96545956 -6.36556707 150 0 150 C0 100.5 0 51 0 0 Z " fill="#9D5C4B" transform="translate(185,142)"/>
<path d="M0 0 C1.47146484 -0.01546875 1.47146484 -0.01546875 2.97265625 -0.03125 C6.79299613 0.65329048 9.2518101 1.75087522 11.9375 4.5 C14.55166352 8.26309785 16.73515121 12.23559208 18.9375 16.25 C19.59479249 17.42275164 20.25367419 18.59461385 20.9140625 19.765625 C22.26954776 22.17094688 23.61907755 24.57946281 24.96484375 26.99023438 C27.8834381 32.20221369 30.91284169 37.34910101 33.9375 42.5 C39.00750893 51.17123845 44.04471688 59.86097791 49.0625 68.5625 C49.69027344 69.65111328 50.31804687 70.73972656 50.96484375 71.86132812 C52.12253295 73.87025939 53.27728858 75.88088536 54.4284668 77.89355469 C55.34368469 79.47434521 56.27562277 81.04582223 57.23754883 82.59863281 C60.54679008 87.9901674 60.7125276 92.33805217 59.9375 98.5 C56.63496008 106.93982425 46.61110815 111.18021883 39.1875 115.375 C37.4553226 116.36351429 35.7231509 117.35203873 33.99131775 118.34115601 C32.18999194 119.36909863 30.38727828 120.39457722 28.58447266 121.41992188 C24.96854258 123.47911584 21.36361396 125.55699913 17.76171875 127.640625 C17.18074432 127.97663727 16.5997699 128.31264954 16.00119019 128.65884399 C14.29236016 129.64738988 12.58367876 130.63619268 10.875 131.625 C3.92846037 135.64396401 -3.03049832 139.63212201 -10.0625 143.5 C-9.39236605 146.8914178 -8.08703945 149.5112775 -6.39453125 152.515625 C-5.5603064 154.00243774 -5.5603064 154.00243774 -4.70922852 155.51928711 C-4.10393311 156.58542236 -3.4986377 157.65155762 -2.875 158.75 C-2.247146 159.86318604 -1.61929199 160.97637207 -0.97241211 162.12329102 C4.39052396 171.60260671 9.8674443 181.01428458 15.375 190.41015625 C20.97956461 199.97534172 26.49976164 209.58936946 32.03320312 219.19580078 C33.95256662 222.52614252 35.87432353 225.85509148 37.796875 229.18359375 C43.81995748 239.61218763 49.83428632 250.04560449 55.8125 260.5 C56.31869873 261.38469971 56.82489746 262.26939941 57.34643555 263.1809082 C57.80703369 263.9874585 58.26763184 264.79400879 58.7421875 265.625 C59.14421387 266.32882812 59.54624023 267.03265625 59.96044922 267.7578125 C62.63859085 272.53322947 62.49463403 277.09656312 61.9375 282.5 C59.9351035 286.504793 57.75751123 289.1587028 53.9375 291.5 C49.01843772 293.13968743 44.68447129 293.05903081 39.8125 291.5 C32.64110831 286.51120578 28.68459786 277.87138347 24.50531006 270.41784668 C23.47224459 268.57550165 22.43257654 266.7370237 21.39111328 264.89941406 C20.30745593 262.98720767 19.22417526 261.07480001 18.1428833 259.16125488 C14.56881457 252.83667826 10.94629539 246.54043573 7.3125 240.25 C6.38630859 238.64511719 6.38630859 238.64511719 5.44140625 237.0078125 C1.31646438 229.86715682 -2.83685681 222.74343173 -7 215.625 C-14.13033656 203.43094356 -21.13514432 191.16683201 -28.12792969 178.89355469 C-31.43467737 173.09297508 -34.74876056 167.29658737 -38.0625 161.5 C-41.4539178 162.17013395 -44.0737775 163.47546055 -47.078125 165.16796875 C-48.07030029 165.72468262 -49.06247559 166.28139648 -50.0847168 166.85498047 C-51.68246948 167.76207764 -51.68246948 167.76207764 -53.3125 168.6875 C-54.41698486 169.31027832 -55.52146973 169.93305664 -56.65942383 170.57470703 C-64.39123914 174.94818149 -72.07924307 179.39534645 -79.75 183.875 C-80.75087646 184.45677002 -81.75175293 185.03854004 -82.78295898 185.63793945 C-86.98924551 188.08847926 -91.17712754 190.54995285 -95.2890625 193.15625 C-102.18154667 197.46699773 -107.80140058 200.16359489 -116.0625 198.5 C-124.31440147 195.27099508 -128.40316406 185.73548734 -132.47610474 178.45501709 C-133.88076931 175.94444763 -135.29880746 173.44152163 -136.7162323 170.93814087 C-137.44327802 169.65397508 -138.16968565 168.36944782 -138.89546204 167.08456421 C-142.25065515 161.1492372 -145.68011438 155.25867262 -149.125 149.375 C-149.68131104 148.41650146 -150.23762207 147.45800293 -150.81079102 146.47045898 C-153.55906582 141.74036523 -156.33585247 137.03325856 -159.19584656 132.36962891 C-160.2643079 130.62182568 -161.32212794 128.86802419 -162.37670898 127.11181641 C-163.71223618 124.89263568 -165.06618278 122.68439523 -166.44165039 120.48974609 C-170.4675106 113.73866343 -172.51424476 108.38358479 -171.0625 100.5 C-168.4436928 92.74865401 -162.22548292 90.17803184 -155.3125 86.4375 C-154.13952711 85.78517339 -152.96766784 85.1308407 -151.796875 84.47460938 C-149.39242852 83.12835059 -146.98388987 81.78989682 -144.57226562 80.45654297 C-139.35115715 77.55908129 -134.20964561 74.52626318 -129.0625 71.5 C-117.51723468 64.74955211 -105.9334515 58.06659056 -94.34472656 51.39111328 C-88.91590058 48.26319852 -83.48930719 45.13141552 -78.0625 42 C-75.89584417 40.74998121 -73.7291775 39.49998122 -71.5625 38.25 C-70.49 37.63125 -69.4175 37.0125 -68.3125 36.375 C-65.0625 34.5 -61.8125 32.625 -58.5625 30.75 C-57.48846924 30.13036377 -56.41443848 29.51072754 -55.30786133 28.87231445 C-53.15666776 27.63124746 -51.00546345 26.39019907 -48.85424805 25.14916992 C-43.80287001 22.23501656 -38.7515969 19.32068182 -33.70071411 16.40567017 C-31.91183082 15.37326522 -30.12291283 14.34092044 -28.33398438 13.30859375 C-26.08912364 12.01314052 -23.8443281 10.7175743 -21.59960938 9.421875 C-19.61323141 8.27564548 -17.62515317 7.13235502 -15.63500977 5.99267578 C-14.07286923 5.08625771 -12.52060112 4.16211836 -10.98803711 3.20654297 C-7.2181589 0.88098549 -4.43553084 -0.04675131 0 0 Z " fill="#FE465B" transform="translate(450.0625,-0.5)"/>
<path d="M0 0 C-0.19335938 0.556875 -0.38671875 1.11375 -0.5859375 1.6875 C-5.67980904 16.61607401 -7.14077635 30.17897015 -0.1796875 44.8125 C5.33279078 55.03431403 13.77723448 62.29144345 24.67578125 66.30859375 C36.04512421 69.69073443 48.27773783 69.10512202 59 64 C70.59794704 57.41783178 77.87705895 48.29184924 82.109375 35.69921875 C83.06800965 31.71752133 83.42250687 27.94985224 83.4375 23.875 C83.44136719 23.14015381 83.44523438 22.40530762 83.44921875 21.64819336 C83.31593413 15.24011859 81.73349273 10.3001686 79.09375 4.44140625 C78 2 78 2 78 0 C98.49852604 -4.14009639 118.32318979 0.21124716 136 11 C153.41055988 23.09304898 164.20716288 40.25146734 168.609375 60.8515625 C171.24238056 82.07358728 167.04090483 101.56174854 154.796875 119.16796875 C142.21211477 135.11893232 124.43802612 146.49226673 104 149 C82.42222416 150.3657124 62.57730664 146.20922834 45.75 132 C44.91984375 131.236875 44.0896875 130.47375 43.234375 129.6875 C40.93467822 127.59821654 40.93467822 127.59821654 37 128 C34.67803726 129.54425293 34.67803726 129.54425293 32.375 131.625 C16.17890033 145.03111462 -2.09376873 150.32869792 -23 149 C-42.95347665 146.8164662 -61.04487249 137.90137419 -74 122.375 C-87.92397639 104.37637161 -92.68047502 85.43498626 -91 63 C-88.84366268 46.58118788 -80.0278424 31.1687108 -68 20 C-67.37738281 19.39542969 -66.75476563 18.79085938 -66.11328125 18.16796875 C-57.39540448 9.98224245 -47.45574762 4.39745719 -36 1 C-35.24847656 0.77441406 -34.49695313 0.54882812 -33.72265625 0.31640625 C-22.93317258 -2.35791021 -10.91512679 -1.5469284 0 0 Z " fill="#F9A58E" transform="translate(146,313)"/>
<path d="M0 0 C-0.19335938 0.556875 -0.38671875 1.11375 -0.5859375 1.6875 C-5.67980904 16.61607401 -7.14077635 30.17897015 -0.1796875 44.8125 C5.13553133 54.66853492 13.53259496 62.46306157 24.19433594 66.18457031 C27.22516258 67.06544057 30.20370441 67.60856397 33.3203125 68.1015625 C34.92156982 68.35800537 34.92156982 68.35800537 36.55517578 68.61962891 C37.76536377 68.8079126 37.76536377 68.8079126 39 69 C39.12677079 76.88353305 39.21433995 84.76680331 39.2746582 92.65112305 C39.29697994 95.33338454 39.33176794 98.0150542 39.37719727 100.69702148 C39.43784525 104.55209255 39.46621127 108.4062577 39.48828125 112.26171875 C39.51408768 113.46084396 39.5398941 114.65996918 39.56648254 115.89543152 C39.56960616 125.16551985 39.56960616 125.16551985 36.57373047 128.19677734 C35.72439941 128.79184082 34.87506836 129.3869043 34 130 C33.44957031 130.52464844 32.89914063 131.04929687 32.33203125 131.58984375 C17.83200846 144.44976113 0.05395899 149.56312778 -19.06640625 149.25 C-39.26922598 147.96600748 -58.22720463 140.09134845 -71.953125 124.828125 C-87.28315435 106.45549441 -92.76572557 86.57311378 -91 63 C-88.84366268 46.58118788 -80.0278424 31.1687108 -68 20 C-67.37738281 19.39542969 -66.75476563 18.79085938 -66.11328125 18.16796875 C-57.39540448 9.98224245 -47.45574762 4.39745719 -36 1 C-35.24847656 0.77441406 -34.49695313 0.54882812 -33.72265625 0.31640625 C-22.93317258 -2.35791021 -10.91512679 -1.5469284 0 0 Z " fill="#FEBDA9" transform="translate(146,313)"/>
<path d="M0 0 C1.52560547 -0.04253906 1.52560547 -0.04253906 3.08203125 -0.0859375 C7.12581635 0.51427211 9.08060129 1.71678149 12.1875 4.375 C13.84021114 6.7916168 15.04822428 9.33552021 16.25 12 C17.21655359 14.04470923 18.18397003 16.08820972 19.17016602 18.12353516 C20.1875 20.375 20.1875 20.375 21.10913086 23.04443359 C22.21339021 25.89763996 23.21483924 28.02870217 25.1875 30.375 C29.24642063 32.06812191 33.26641931 32.40491444 37.625 32.75 C52.34029777 34.22407128 52.34029777 34.22407128 58.5625 40.9375 C60.81301502 45.69820486 61.17652526 50.19716187 60.1875 55.375 C58.12171242 59.36170175 55.63339083 61.94195136 52.19140625 64.72265625 C44.02685707 71.02622215 44.02685707 71.02622215 39.74169922 79.97412109 C39.87853731 85.48460089 41.20585869 90.72400323 42.61767578 96.02978516 C44.13572652 102.27759808 44.29356223 108.20101561 41.375 113.9375 C40.653125 114.741875 39.93125 115.54625 39.1875 116.375 C38.671875 116.973125 38.15625 117.57125 37.625 118.1875 C34.08745003 121.10982389 29.5338306 120.79773427 25.17822266 120.75830078 C20.04486349 120.10039271 16.18326403 117.54383959 11.875 114.8125 C5.90841707 110.84492281 5.90841707 110.84492281 -0.87890625 109.21875 C-5.02106584 110.85134552 -8.6520217 113.11290771 -12.4375 115.4375 C-18.69288991 119.0748722 -23.8618837 121.81243677 -31.31640625 121.109375 C-36.236117 119.66194836 -39.33136227 116.79369293 -41.97265625 112.48046875 C-42.9671473 109.98730282 -43.11316433 108.12419719 -43.125 105.4375 C-43.13402344 104.37917969 -43.14304688 103.32085937 -43.15234375 102.23046875 C-42.87240021 99.05455757 -42.3692993 96.57818015 -41.50390625 93.55078125 C-39.37818518 85.54705882 -39.37818518 85.54705882 -39.8125 77.375 C-43.78687835 70.77541129 -49.88755835 65.86253468 -55.88549805 61.14819336 C-58.64385764 58.6099993 -59.66873442 56.48166066 -60.1484375 52.7890625 C-60.23224948 46.80488703 -60.06862393 42.96713371 -55.8125 38.375 C-51.91719356 34.93233964 -49.34608973 34.14663182 -44.14453125 33.91796875 C-32.35680581 33.7403678 -32.35680581 33.7403678 -22.65576172 28.02636719 C-19.13881285 22.31658944 -17.00344246 16.18850968 -14.84179688 9.87158203 C-12.15295577 3.34973926 -6.95778279 0.08751928 0 0 Z " fill="#FFBD1C" transform="translate(209.8125,-0.375)"/>
<path d="M0 0 C0.35078613 0.63164063 0.70157227 1.26328125 1.06298828 1.9140625 C8.70985139 15.66702135 16.48090039 29.33369051 24.4375 42.91015625 C28.13213429 49.21570622 31.78828461 55.54308225 35.4375 61.875 C36.05133545 62.93920166 36.6651709 64.00340332 37.29760742 65.09985352 C40.24559379 70.21274933 43.1894191 75.3279839 46.12464905 80.44821167 C47.50028294 82.84713889 48.8778592 85.24494779 50.25564575 87.64263916 C51.22762009 89.33600979 52.19673004 91.03102352 53.16577148 92.72607422 C53.75559814 93.7523291 54.3454248 94.77858398 54.953125 95.8359375 C55.47036133 96.73876465 55.98759766 97.6415918 56.52050781 98.57177734 C57.8967307 100.83050883 59.37335316 102.91665478 61 105 C60.33170166 105.3717334 59.66340332 105.7434668 58.97485352 106.12646484 C56.9736787 107.24061296 54.97316825 108.35595482 52.97314453 109.47216797 C50.68778807 110.74719075 48.40098698 112.0196274 46.11279297 113.28955078 C40.98857761 116.14629904 35.8964471 119.01328617 30.94140625 122.15625 C17.94371353 130.38522068 17.94371353 130.38522068 10.1640625 129.52734375 C3.39746958 127.87844475 -0.16784832 122.97524806 -3.67871094 117.27392578 C-5.27685336 114.51174142 -6.85557881 111.7400224 -8.41360474 108.95501709 C-9.81826931 106.44444763 -11.23630746 103.94152163 -12.6537323 101.43814087 C-13.38077802 100.15397508 -14.10718565 98.86944782 -14.83296204 97.58456421 C-18.18815515 91.6492372 -21.61761438 85.75867262 -25.0625 79.875 C-25.61881104 78.91650146 -26.17512207 77.95800293 -26.74829102 76.97045898 C-29.49656582 72.24036523 -32.27335247 67.53325856 -35.13334656 62.86962891 C-36.2018079 61.12182568 -37.25962794 59.36802419 -38.31420898 57.61181641 C-39.64973618 55.39263568 -41.00368278 53.18439523 -42.37915039 50.98974609 C-46.40709849 44.2351622 -48.44597856 38.88665702 -47 31 C-44.38391817 23.07700932 -37.71194307 20.4279324 -30.6875 16.625 C-29.50870951 15.97056733 -28.33097719 15.31422511 -27.15429688 14.65600586 C-24.83574389 13.3597989 -22.51377992 12.07069668 -20.18896484 10.78564453 C-15.44459562 8.12905928 -10.80811315 5.30729552 -6.19018555 2.43798828 C-2.20829729 0 -2.20829729 0 0 0 Z " fill="#E8ECF4" transform="translate(326,69)"/>
<path d="M0 0 C6.89141292 3.112251 9.4877098 9.34785078 13 15.75 C13.65729249 16.92275164 14.31617419 18.09461385 14.9765625 19.265625 C16.33204776 21.67094688 17.68157755 24.07946281 19.02734375 26.49023438 C21.9459381 31.70221369 24.97534169 36.84910101 28 42 C33.07000893 50.67123845 38.10721688 59.36097791 43.125 68.0625 C43.75277344 69.15111328 44.38054687 70.23972656 45.02734375 71.36132812 C46.18503295 73.37025939 47.33978858 75.38088536 48.4909668 77.39355469 C49.40618469 78.97434521 50.33812277 80.54582223 51.30004883 82.09863281 C54.60929008 87.4901674 54.7750276 91.83805217 54 98 C50.57485603 106.75314571 39.92192236 111.10476457 32.25 115.4375 C29.98391098 116.72704952 27.71827943 118.01740329 25.453125 119.30859375 C24.36580078 119.92589355 23.27847656 120.54319336 22.15820312 121.17919922 C18.36592886 123.36556142 14.63355028 125.64100509 10.91699219 127.95336914 C9 129 9 129 7 129 C6.47974243 128.03622437 6.47974243 128.03622437 5.94897461 127.05297852 C1.91951827 119.62310911 -2.23518467 112.27073933 -6.4375 104.9375 C-7.1412318 103.7078663 -7.84492568 102.47821091 -8.54858398 101.24853516 C-15.04022303 89.90961073 -21.56888079 78.59207527 -28.10595703 67.27929688 C-30.08141976 63.85903194 -32.05474772 60.43754365 -34.02734375 57.015625 C-34.69913413 55.85042131 -35.37092772 54.68521947 -36.04272461 53.52001953 C-37.30022438 51.33880563 -38.55756235 49.15749843 -39.81469727 46.97607422 C-40.39147217 45.97592285 -40.96824707 44.97577148 -41.5625 43.9453125 C-42.12195313 42.97239258 -42.68140625 41.99947266 -43.2578125 40.99707031 C-44.48674258 38.88295236 -45.73324575 36.77900206 -46.9921875 34.68261719 C-47.63414062 33.60915039 -48.27609375 32.53568359 -48.9375 31.4296875 C-49.81728516 29.9753833 -49.81728516 29.9753833 -50.71484375 28.49169922 C-52 26 -52 26 -52 23 C-50.26826173 21.99994361 -48.53648159 20.99995973 -46.8046875 20 C-45.7027002 19.36328369 -44.60071289 18.72656738 -43.46533203 18.07055664 C-41.06526305 16.68495703 -38.66240154 15.30437691 -36.25732422 13.92749023 C-28.84884857 9.69051188 -28.84884857 9.69051188 -21.578125 5.22265625 C-14.63302653 0.83291842 -8.34185278 -2.06149235 0 0 Z " fill="#CCD3E1" transform="translate(456,0)"/>
<path d="M0 0 C11.56227033 7.28387672 19.35484191 17.83246857 23 31 C24.18621915 44.71048648 22.469892 56.42541444 13.9765625 67.68359375 C5.76419705 77.3079667 -4.71357973 84.21937297 -17.578125 85.30078125 C-32.57944259 85.3486578 -43.70935985 82.01726247 -54.875 71.625 C-58.40738446 67.85599648 -60.76060768 63.62697973 -63 59 C-63.309375 58.37867188 -63.61875 57.75734375 -63.9375 57.1171875 C-68.9033513 46.46925635 -68.03290031 33.97062957 -64.3203125 23.10546875 C-59.44852388 11.646676 -50.66637224 3.35788293 -39.5546875 -1.9921875 C-26.42056354 -7.17353915 -12.46014152 -6.72236518 0 0 Z " fill="#525C5C" transform="translate(207,297)"/>
<path d="M0 0 C0.5576001 1.00244751 0.5576001 1.00244751 1.12646484 2.02514648 C10.4658349 18.80688534 10.4658349 18.80688534 20.11010742 35.4140625 C23.8522451 41.72671647 27.52368549 48.07911178 31.1875 54.4375 C32.13363159 56.07875854 32.13363159 56.07875854 33.09887695 57.75317383 C36.09903949 62.95948286 39.09658346 68.16728612 42.09120178 73.37678528 C43.11150425 75.15129074 44.13242776 76.92543737 45.15356445 78.69946289 C46.43333321 80.92317007 47.71188804 83.14757649 48.98901367 85.37280273 C51.90765803 90.44266322 54.84858812 95.44352288 58.14794922 100.27685547 C59 102 59 102 59 106 C46.17086313 113.36562432 33.33796086 120.59235842 20 127 C19.58862793 126.27748047 19.17725586 125.55496094 18.75341797 124.81054688 C10.99894432 111.19775864 3.21249354 97.60704337 -4.70532227 84.08837891 C-7.82159567 78.75915079 -10.91446072 73.41745886 -13.97265625 68.0546875 C-14.30921738 67.46451843 -14.6457785 66.87434937 -14.99253845 66.26629639 C-16.68851071 63.2904486 -18.38153808 60.31295321 -20.07202148 57.33398438 C-23.29113945 51.67148817 -26.55500169 46.04344974 -29.9375 40.4765625 C-30.54972412 39.46480957 -31.16194824 38.45305664 -31.79272461 37.41064453 C-32.94415052 35.51696268 -34.10591522 33.62951573 -35.27954102 31.74951172 C-35.78670654 30.91436035 -36.29387207 30.07920898 -36.81640625 29.21875 C-37.48845093 28.1349707 -37.48845093 28.1349707 -38.17407227 27.02929688 C-39 25 -39 25 -38.97607422 22.95263672 C-37.50524779 20.01024808 -35.41526287 19.12848381 -32.56640625 17.5390625 C-31.44169922 16.90226562 -30.31699219 16.26546875 -29.15820312 15.609375 C-27.95988329 14.94746771 -26.76131411 14.28601165 -25.5625 13.625 C-24.39840361 12.97257475 -23.23498416 12.31894012 -22.07226562 11.6640625 C-19.79697967 10.38381085 -17.51918416 9.10800791 -15.23876953 7.83691406 C-11.40412025 5.66203835 -7.64626659 3.37723494 -3.90600586 1.04443359 C-2 0 -2 0 0 0 Z " fill="#BF0133" transform="translate(404,24)"/>
<path d="M0 0 C2.25469828 2.87848008 4.09864299 5.81513374 5.86328125 9.015625 C6.68783813 10.50243774 6.68783813 10.50243774 7.52905273 12.01928711 C8.41185913 13.61848999 8.41185913 13.61848999 9.3125 15.25 C14.10129792 23.8643498 18.95400543 32.43390673 23.9375 40.9375 C24.51226074 41.91831543 25.08702148 42.89913086 25.67919922 43.90966797 C26.25943848 44.8998291 26.83967773 45.88999023 27.4375 46.91015625 C33.04206461 56.47534172 38.56226164 66.08936946 44.09570312 75.69580078 C46.01506662 79.02614252 47.93682353 82.35509148 49.859375 85.68359375 C55.88245748 96.11218763 61.89678632 106.54560449 67.875 117 C68.38119873 117.88469971 68.88739746 118.76939941 69.40893555 119.6809082 C70.09983276 120.89073364 70.09983276 120.89073364 70.8046875 122.125 C71.20671387 122.82882812 71.60874023 123.53265625 72.02294922 124.2578125 C74.70109085 129.03322947 74.55713403 133.59656312 74 139 C71.9976035 143.004793 69.82001123 145.6587028 66 148 C61.08093772 149.63968743 56.74697129 149.55903081 51.875 148 C44.70360831 143.01120578 40.74709786 134.37138347 36.56781006 126.91784668 C35.53474459 125.07550165 34.49507654 123.2370237 33.45361328 121.39941406 C32.36995593 119.48720767 31.28667526 117.57480001 30.2053833 115.66125488 C26.63131457 109.33667826 23.00879539 103.04043573 19.375 96.75 C18.75753906 95.68007812 18.14007813 94.61015625 17.50390625 93.5078125 C12.8136317 85.38851371 8.08532037 77.29176854 3.3503418 69.19848633 C-1.60653864 60.70985477 -6.47689842 52.17321834 -11.34103394 43.63128662 C-16.44080567 34.67963964 -21.6205413 25.78644921 -27 17 C-22.4758997 11.68738548 -16.79887177 8.905452 -10.6875 5.6875 C-9.66076172 5.13771484 -8.63402344 4.58792969 -7.57617188 4.02148438 C-5.05494048 2.67291874 -2.52960948 1.33276392 0 0 Z " fill="#646D72" transform="translate(438,143)"/>
<path d="M0 0 C0 35.64 0 71.28 0 108 C-22 120 -22 120 -34 120 C-38.35476134 117.09682577 -41.05729282 114.87032172 -43 110 C-43.30078125 107.72265625 -43.30078125 107.72265625 -43.3125 105.0625 C-43.32152344 104.00417969 -43.33054688 102.94585937 -43.33984375 101.85546875 C-43.05990021 98.67955757 -42.5567993 96.20318015 -41.69140625 93.17578125 C-39.56568518 85.17205882 -39.56568518 85.17205882 -40 77 C-43.97437835 70.40041129 -50.07505835 65.48753468 -56.07299805 60.77319336 C-58.83135764 58.2349993 -59.85623442 56.10666066 -60.3359375 52.4140625 C-60.41974948 46.42988703 -60.25612393 42.59213371 -56 38 C-52.10469356 34.55733964 -49.53358973 33.77163182 -44.33203125 33.54296875 C-32.54430581 33.3653678 -32.54430581 33.3653678 -22.84326172 27.65136719 C-19.32631285 21.94158944 -17.19094246 15.81350968 -15.02929688 9.49658203 C-12.20065181 2.63564171 -7.27799633 0 0 0 Z " fill="#FFE54D" transform="translate(210,0)"/>
<path d="M0 0 C0 29.7 0 59.4 0 90 C-13.17738776 90 -23.20273661 85.62732306 -32.875 76.625 C-36.40738446 72.85599648 -38.76060768 68.62697973 -41 64 C-41.309375 63.37867188 -41.61875 62.75734375 -41.9375 62.1171875 C-46.9033513 51.46925635 -46.03290031 38.97062957 -42.3203125 28.10546875 C-37.06264294 15.73905661 -27.29201509 7.06021288 -15 2 C-9.38079307 -0.03454044 -6.36556707 0 0 0 Z " fill="#656E73" transform="translate(185,292)"/>
<path d="M0 0 C2.26270718 3.0169429 4.06098104 5.74682696 5.86328125 9.015625 C6.68783813 10.50243774 6.68783813 10.50243774 7.52905273 12.01928711 C8.11759033 13.08542236 8.70612793 14.15155762 9.3125 15.25 C14.10129792 23.8643498 18.95400543 32.43390673 23.9375 40.9375 C24.51226074 41.91831543 25.08702148 42.89913086 25.67919922 43.90966797 C26.25943848 44.8998291 26.83967773 45.88999023 27.4375 46.91015625 C33.04206461 56.47534172 38.56226164 66.08936946 44.09570312 75.69580078 C46.01506662 79.02614252 47.93682353 82.35509148 49.859375 85.68359375 C55.88245748 96.11218763 61.89678632 106.54560449 67.875 117 C68.38119873 117.88469971 68.88739746 118.76939941 69.40893555 119.6809082 C70.09983276 120.89073364 70.09983276 120.89073364 70.8046875 122.125 C71.20671387 122.82882812 71.60874023 123.53265625 72.02294922 124.2578125 C74.70148894 129.0339393 74.55561198 133.59610263 74 139 C72.99164133 141.70637196 72.04295085 142.84355188 70 145 C67.859375 145.6484375 67.859375 145.6484375 66 146 C58.21936413 132.85530222 50.57806544 119.63190942 42.95556641 106.39501953 C39.80667946 100.9283002 36.65316736 95.46425113 33.5 90 C32.2499765 87.83334689 30.99997653 85.66668021 29.75 83.5 C29.13125 82.4275 28.5125 81.355 27.875 80.25 C22.25 70.5 22.25 70.5 20.37353516 67.24731445 C19.12858718 65.08950197 17.8834711 62.93178647 16.63818359 60.77416992 C13.43447349 55.22283408 10.2340637 49.66963459 7.0390625 44.11328125 C5.73448223 41.84629246 4.42979644 39.57936438 3.125 37.3125 C2.50165771 36.22831787 1.87831543 35.14413574 1.23608398 34.02709961 C-2.59554242 27.37977341 -6.47666598 20.76685072 -10.56396484 14.27270508 C-12.22341839 11.58230482 -13 10.23531071 -13 7 C-8.71 4.69 -4.42 2.38 0 0 Z " fill="#525C5C" transform="translate(438,143)"/>
<path d="M0 0 C0.97582031 -0.04253906 1.95164062 -0.08507813 2.95703125 -0.12890625 C10.22048328 1.42566571 15.88897631 7.9616022 20.98828125 13.09765625 C21.59133591 13.69879745 22.19439056 14.29993866 22.8157196 14.91929626 C24.07597265 16.17820024 25.33375175 17.43958542 26.58911133 18.70336914 C28.50575958 20.63079196 30.43293592 22.54722546 32.36132812 24.46289062 C33.59178807 25.69467129 34.82162794 26.92707174 36.05078125 28.16015625 C36.62266678 28.72799332 37.19455231 29.29583038 37.7837677 29.88087463 C42.52960346 34.68268314 45.61596491 38.47973527 45.625 45.5 C45.48603409 50.6417385 44.8355445 53.71726391 41.1875 57.5625 C37.52118821 60.1615635 34.86243905 61.03678036 30.375 61.125 C29.39917969 61.16753906 28.42335937 61.21007812 27.41796875 61.25390625 C20.15451672 59.69933429 14.48602369 53.1633978 9.38671875 48.02734375 C8.78366409 47.42620255 8.18060944 46.82506134 7.5592804 46.20570374 C6.29902735 44.94679976 5.04124825 43.68541458 3.78588867 42.42163086 C1.86924042 40.49420804 -0.05793592 38.57777454 -1.98632812 36.66210938 C-3.21678807 35.43032871 -4.44662794 34.19792826 -5.67578125 32.96484375 C-6.24766678 32.39700668 -6.81955231 31.82916962 -7.4087677 31.24412537 C-12.15460346 26.44231686 -15.24096491 22.64526473 -15.25 15.625 C-15.11103409 10.4832615 -14.4605445 7.40773609 -10.8125 3.5625 C-7.14618821 0.9634365 -4.48743905 0.08821964 0 0 Z " fill="#E8EDF5" transform="translate(75.8125,44.4375)"/>
<path d="M0 0 C1.13288956 -0.00524185 2.26577911 -0.0104837 3.43299866 -0.0158844 C5.82601096 -0.02230053 8.21905482 -0.02097293 10.61206055 -0.01245117 C14.26863921 -0.00394467 17.92365386 -0.03270521 21.58007812 -0.06445312 C23.90755162 -0.06606536 26.23502787 -0.06548719 28.5625 -0.0625 C29.65328354 -0.07373398 30.74406708 -0.08496796 31.86790466 -0.09654236 C38.00503735 -0.04034632 41.6967528 0.29341143 46.34765625 4.43359375 C50.40396023 9.65619232 50.12163169 15.08699517 49.34765625 21.43359375 C47.17722606 26.01561304 44.94810244 28.38267834 40.34765625 30.43359375 C36.46499869 30.89351964 32.60157665 30.877681 28.6953125 30.8671875 C27.56242294 30.87242935 26.42953339 30.8776712 25.26231384 30.8830719 C22.86930154 30.88948803 20.47625768 30.88816043 18.08325195 30.87963867 C14.42667329 30.87113217 10.77165864 30.89989271 7.11523438 30.93164062 C4.78776088 30.93325286 2.46028463 30.93267469 0.1328125 30.9296875 C-0.95797104 30.94092148 -2.04875458 30.95215546 -3.17259216 30.96372986 C-9.30972485 30.90753382 -13.0014403 30.57377607 -17.65234375 26.43359375 C-21.70864773 21.21099518 -21.42631919 15.78019233 -20.65234375 9.43359375 C-16.18315825 -0.00135341 -9.40538335 -0.02526593 0 0 Z " fill="#E8EDF5" transform="translate(31.65234375,114.56640625)"/>
<path d="M0 0 C1.3600264 0.3520047 1.3600264 0.3520047 2.74752808 0.71112061 C4.6531097 1.2073297 6.55740776 1.70849186 8.46044922 2.21435547 C11.36169017 2.98291871 14.26814998 3.72868372 17.17578125 4.47265625 C19.03421182 4.95957447 20.89229748 5.44781143 22.75 5.9375 C23.61263458 6.15746643 24.47526917 6.37743286 25.36404419 6.60406494 C31.51979132 8.26600327 36.44480738 10.03830482 40.1171875 15.546875 C41.96668051 20.78710519 41.86433489 24.84633644 39.6796875 29.921875 C37.35002739 34.11689233 34.76877444 36.21035093 30.2421875 37.734375 C24.15245957 38.3976414 18.77490808 37.35439051 12.9921875 35.546875 C7.91752924 34.03366487 2.85934434 32.6108468 -2.3125 31.46484375 C-3.24030273 31.25819092 -4.16810547 31.05153809 -5.12402344 30.83862305 C-6.91376442 30.44662226 -8.70602261 30.06587946 -10.50097656 29.69848633 C-16.24724885 28.42370651 -21.19030262 26.55109957 -25.7578125 22.734375 C-28.54318473 18.03405937 -29.43571936 14.15762987 -28.7578125 8.734375 C-27.02854078 3.84506508 -24.34411577 0.97478708 -19.9296875 -1.63671875 C-13.21676014 -3.58057002 -6.53930946 -1.73701486 0 0 Z " fill="#656E72" transform="translate(109.7578125,243.265625)"/>
<path d="M0 0 C3.61529132 2.01622016 5.24574208 3.18941838 7.25 6.8125 C8.58259139 11.83135069 8.84969778 16.34349639 6.8125 21.1875 C2.68160809 27.92879987 -5.57140048 29.57354217 -12.81640625 31.390625 C-13.65413071 31.60692566 -14.49185516 31.82322632 -15.35496521 32.04608154 C-17.11269916 32.49742994 -18.87160044 32.94425469 -20.6315918 33.38671875 C-23.31198548 34.0623703 -25.98704444 34.75671062 -28.66210938 35.453125 C-30.37992161 35.89174943 -32.09801186 36.32928682 -33.81640625 36.765625 C-34.60825821 36.97181458 -35.40011017 37.17800415 -36.21595764 37.39044189 C-43.69357001 39.24678183 -49.80066423 39.74608628 -56.75 35.8125 C-60.81248509 31.3223849 -62.00874382 26.75325799 -61.75 20.8125 C-60.1782151 15.48589562 -58.34002493 12.8557089 -53.75 9.8125 C-50.75072947 8.71137196 -47.69209304 7.98888713 -44.58203125 7.26953125 C-43.70600754 7.05560226 -42.82998383 6.84167328 -41.92741394 6.6212616 C-39.14191893 5.9435124 -36.35255337 5.28370578 -33.5625 4.625 C-30.76274162 3.95189573 -27.96389184 3.27516326 -25.16545105 2.59660339 C-23.42691859 2.17636506 -21.6874457 1.75999485 -19.94697571 1.34785461 C-6.14482922 -1.94586259 -6.14482922 -1.94586259 0 0 Z " fill="#525C5B" transform="translate(280.75,242.1875)"/>
</svg>
